<?xml version="1.0" encoding="iso-8859-1"?>
<!-- Generator: Adobe Illustrator 19.0.0, SVG Export Plug-In . SVG Version: 6.00 Build 0)  -->
<svg version="1.1" id="Layer_1" xmlns="http://www.w3.org/2000/svg" xmlns:xlink="http://www.w3.org/1999/xlink" x="0px" y="0px"
	 viewBox="0 0 512 512" style="enable-background:new 0 0 512 512;" xml:space="preserve">
<g>
	<g>
		<path d="M455.904,210.104c-18.166,0-34.981-7.326-47.351-20.63c-12.37-13.303-18.455-30.606-17.136-48.723l9.453-129.811
			c0.206-2.826-0.774-5.611-2.703-7.686C396.239,1.178,393.532,0,390.698,0h-57.21c-5.582,0-10.127,4.487-10.198,10.068
			c-0.473,36.627-30.66,66.426-67.289,66.426c-36.629,0-66.816-29.799-67.29-66.426C188.638,4.487,184.094,0,178.512,0h-57.141
			c-2.833,0-5.54,1.179-7.469,3.254c-1.929,2.075-2.91,4.86-2.703,7.686l9.453,129.811c1.32,18.117-4.766,35.42-17.136,48.723
			c-12.371,13.304-29.186,20.63-47.42,20.63c-5.632,0-10.199,4.566-10.199,10.199v281.498c0,5.633,4.567,10.199,10.199,10.199
			h399.809c5.632,0,10.199-4.566,10.199-10.199V220.303C466.104,214.67,461.536,210.104,455.904,210.104z M445.705,491.602H66.295
			v-17.339h379.41V491.602z M445.705,453.865H66.295v-25.498h379.41V453.865z M445.705,407.968H66.295V229.891
			c19.835-2.399,38.439-11.771,52.16-26.526c16.035-17.247,24.251-40.608,22.541-64.095L132.34,20.398h36.674
			c2.461,19.364,11.265,37.256,25.352,51.179C210.885,87.902,232.773,96.892,256,96.892c23.227,0,45.115-8.991,61.634-25.315
			c14.087-13.923,22.891-31.814,25.352-51.179h36.743l-8.655,118.871c-1.71,23.487,6.506,46.849,22.541,64.095
			c13.706,14.739,32.279,24.106,52.09,26.518V407.968z"/>
	</g>
</g>
<g>
	<g>
		<path d="M244.046,302.854h-44.921v-3.879c0-16.805,51.223-28.116,51.223-63.02c0-20.522-17.451-32.803-36.195-32.803
			c-17.936,0-34.742,11.311-34.742,29.733c0,8.725,4.04,11.311,9.534,11.311c6.949,0,10.988-3.878,10.988-7.755
			c0-10.019,6.464-14.22,14.382-14.22c10.664,0,15.028,7.755,15.028,14.381c0,22.784-52.032,36.519-52.032,62.373v15.674
			c0,4.039,5.494,6.625,9.211,6.625h57.525c3.554,0,6.625-4.524,6.625-9.372C250.671,307.055,247.601,302.854,244.046,302.854z"/>
	</g>
</g>
<g>
	<g>
		<path d="M317.564,258.902c7.918-3.717,12.603-14.059,12.603-26.824c0-21.491-14.543-28.924-34.095-28.924
			c-27.308,0-35.388,16.644-35.388,28.116c0,6.787,1.455,9.049,10.826,9.049c7.755,0,10.019-3.231,10.019-8.079
			c0-6.463,3.878-10.826,14.382-10.826c8.725,0,14.219,3.555,14.219,14.22c0,13.896-6.787,15.835-14.865,15.835
			c-4.687,0-6.303,4.201-6.303,8.241c0,4.202,1.617,8.241,6.303,8.241c10.342,0,17.774,3.393,17.774,15.351v3.07
			c0,12.281-5.17,17.451-17.29,17.451c-10.342,0-16.805-4.524-16.805-11.795c0-5.171-2.262-7.433-10.826-7.433
			c-7.271,0-10.018,1.778-10.018,8.241c0,13.089,10.664,29.408,37.165,29.408c21.33,0,38.78-9.858,38.78-35.873v-3.07
			C334.046,269.89,327.099,262.618,317.564,258.902z"/>
	</g>
</g>
<g>
	<g>
		<path d="M236.622,376.351h-7.139c-5.632,0-10.199,4.566-10.199,10.199c0,5.633,4.567,10.199,10.199,10.199h7.139
			c5.632,0,10.199-4.566,10.199-10.199C246.821,380.917,242.254,376.351,236.622,376.351z"/>
	</g>
</g>
<g>
	<g>
		<path d="M192.765,376.351H90.773c-5.632,0-10.199,4.566-10.199,10.199c0,5.633,4.567,10.199,10.199,10.199h101.992
			c5.632,0,10.199-4.566,10.199-10.199C202.964,380.917,198.397,376.351,192.765,376.351z"/>
	</g>
</g>
<g>
</g>
<g>
</g>
<g>
</g>
<g>
</g>
<g>
</g>
<g>
</g>
<g>
</g>
<g>
</g>
<g>
</g>
<g>
</g>
<g>
</g>
<g>
</g>
<g>
</g>
<g>
</g>
<g>
</g>
</svg>
