<?xml version="1.0" encoding="iso-8859-1"?>
<!-- Generator: Adobe Illustrator 19.0.0, SVG Export Plug-In . SVG Version: 6.00 Build 0)  -->
<svg version="1.1" id="Layer_1" xmlns="http://www.w3.org/2000/svg" xmlns:xlink="http://www.w3.org/1999/xlink" x="0px" y="0px"
	 viewBox="0 0 512 512" style="enable-background:new 0 0 512 512;" xml:space="preserve">
<g>
	<g>
		<path d="M511.192,197.129c-1.964-6.044-7.222-10.426-13.524-11.266L339.723,164.81L270.894,21.103
			c-2.746-5.734-8.538-9.381-14.893-9.381s-12.148,3.648-14.893,9.381L172.277,164.81L14.333,185.863
			c-6.301,0.84-11.56,5.221-13.524,11.266c-1.964,6.045-0.285,12.682,4.319,17.064l115.404,109.869L91.747,480.781
			c-1.147,6.251,1.394,12.607,6.536,16.343c5.14,3.737,11.97,4.19,17.562,1.166L256,422.485l140.154,75.805
			c2.462,1.331,5.163,1.988,7.854,1.988c3.423,0,6.83-1.063,9.708-3.154c5.143-3.735,7.685-10.091,6.536-16.343l-28.785-156.718
			l115.406-109.869C511.477,209.811,513.156,203.173,511.192,197.129z M362.225,306.299c-4.036,3.843-5.862,9.463-4.855,14.944
			l24.17,131.591l-117.683-63.651c-2.451-1.326-5.153-1.988-7.856-1.988s-5.407,0.663-7.856,1.988l-117.683,63.651l24.171-131.591
			c1.007-5.482-0.819-11.101-4.855-14.944l-96.903-92.253l132.621-17.677c5.526-0.737,10.305-4.21,12.713-9.236L256,66.467
			l57.795,120.667c2.408,5.026,7.187,8.499,12.713,9.236l132.621,17.677L362.225,306.299z"/>
	</g>
</g>
<g>
</g>
<g>
</g>
<g>
</g>
<g>
</g>
<g>
</g>
<g>
</g>
<g>
</g>
<g>
</g>
<g>
</g>
<g>
</g>
<g>
</g>
<g>
</g>
<g>
</g>
<g>
</g>
<g>
</g>
</svg>
